<svg width="24" height="24" viewBox="0 0 24 24" fill="none" xmlns="http://www.w3.org/2000/svg">
<path d="M17.0192 2.04616L16.0542 1.78516L15.5312 3.71516L16.4972 3.97716C17.3409 4.20554 18.11 4.65111 18.7278 5.26944C19.3456 5.88777 19.7905 6.65725 20.0182 7.50116L20.2782 8.46616L22.2092 7.94516L21.9492 6.98016C21.6305 5.79854 21.0075 4.72113 20.1425 3.85539C19.2774 2.98965 18.2005 2.36584 17.0192 2.04616ZM16.1052 5.42416L15.1402 5.16316L14.6172 7.09316L15.5832 7.35516C15.8362 7.4237 16.0669 7.55736 16.2522 7.74282C16.4374 7.92828 16.5709 8.15906 16.6392 8.41216L16.8992 9.37716L18.8302 8.85716L18.5702 7.89116C18.4108 7.30035 18.0994 6.76165 17.6668 6.32877C17.2343 5.89591 16.6959 5.584 16.1052 5.42416Z" fill="black"/>
<path d="M9.58003 2H1.00003V3C0.993465 6.84967 2.10365 10.6186 4.19603 13.85C5.73807 16.2328 7.76725 18.262 10.15 19.804C13.3814 21.8964 17.1504 23.0066 21 23H22V14.42L15.31 12.933L13.45 14.793C11.748 13.6994 10.3013 12.2523 9.20803 10.55L11.067 8.69L9.58003 2Z" fill="black"/>
</svg>
